<?xml version="1.0" encoding="UTF-8" standalone="no"?>
<!-- Uploaded to: SVG Repo, www.svgrepo.com, Generator: SVG Repo Mixer Tools -->

<svg
   fill="#000000"
   height="800px"
   width="800px"
   version="1.1"
   id="Capa_1"
   viewBox="0 0 60 60"
   xml:space="preserve"
   sodipodi:docname="request-error.svg"
   inkscape:version="1.2.1 (9c6d41e410, 2022-07-14)"
   xmlns:inkscape="http://www.inkscape.org/namespaces/inkscape"
   xmlns:sodipodi="http://sodipodi.sourceforge.net/DTD/sodipodi-0.dtd"
   xmlns="http://www.w3.org/2000/svg"
   xmlns:svg="http://www.w3.org/2000/svg"><defs
   id="defs168" /><sodipodi:namedview
   id="namedview166"
   pagecolor="#ffffff"
   bordercolor="#000000"
   borderopacity="0.25"
   inkscape:showpageshadow="2"
   inkscape:pageopacity="0.0"
   inkscape:pagecheckerboard="true"
   inkscape:deskcolor="#d1d1d1"
   showgrid="false"
   inkscape:zoom="0.71948115"
   inkscape:cx="678.26655"
   inkscape:cy="482.292"
   inkscape:window-width="1920"
   inkscape:window-height="1017"
   inkscape:window-x="-8"
   inkscape:window-y="-8"
   inkscape:window-maximized="1"
   inkscape:current-layer="Capa_1"
   showguides="false" />
<g
   id="g163">
	
	
	
	<path
   d="M0,0v14v46h60V14V0H0z M2,2h56v10H2V2z M58,58H2V14h56V58z"
   id="path157" />
	<polygon
   points="54.293,3.293 52,5.586 49.707,3.293 48.293,4.707 50.586,7 48.293,9.293 49.707,10.707 52,8.414 54.293,10.707    55.707,9.293 53.414,7 55.707,4.707  "
   id="polygon159" />
	<path
   d="M3,11h39V3H3V11z M5,5h35v4H5V5z"
   id="path161" />
<path
   style="fill:#ffffff;stroke-width:0.0982801;stroke-linecap:round;stroke-linejoin:round;stroke-miterlimit:0.5"
   d="M 27.027027,480.09828 V 187.22359 H 400 772.97297 V 480.09828 772.97297 H 400 27.027027 Z"
   id="path319"
   transform="scale(0.075)" /><path
   style="fill:#808080;stroke-width:0.0982801;stroke-linecap:round;stroke-linejoin:round;stroke-miterlimit:0.5"
   d="M 27.027027,480.09828 V 187.22359 H 400 772.97297 V 480.09828 772.97297 H 400 27.027027 Z"
   id="path390"
   transform="scale(0.075)" /><path
   style="fill:#1e90ff;stroke:none;stroke-width:0.00751922;stroke-linecap:round;stroke-linejoin:round;stroke-miterlimit:0.5;stroke-opacity:1"
   d="M 4.97415,7.00245 V 4.97415 H 22.480949 39.98775 v 2.0283 2.0283 H 22.480949 4.97415 Z"
   id="path461" /><path
   style="fill:#ffffff;stroke-width:0.0982801;stroke-linecap:round;stroke-linejoin:round;stroke-miterlimit:0.5"
   d="M 27.027027,480.09828 V 187.22359 H 400 772.97297 V 480.09828 772.97297 H 400 27.027027 Z"
   id="path532"
   transform="scale(0.075)" /></g>
<path
   style="fill:#dcdcdc;stroke:none;stroke-width:0.138989;stroke-linecap:round;stroke-linejoin:round;stroke-miterlimit:0.5;stroke-opacity:1"
   d="M 27.79781,93.122662 V 27.102864 H 400.28846 772.77911 V 93.122662 159.14246 H 400.28846 27.79781 Z m 532.32805,0.694945 V 39.611879 H 299.5214 38.916933 v 53.279134 c 0,29.303527 0.416968,53.696107 0.926595,54.205727 0.509625,0.50963 117.781632,0.9266 260.604472,0.9266 h 259.67786 z m 148.01789,34.741803 15.2379,15.28529 10.11141,-10.04393 10.11141,-10.04392 -15.2963,-15.33982 -15.29631,-15.339826 15.29564,-15.248214 15.29565,-15.248215 -9.72923,-9.729233 -9.72924,-9.729234 -15.29467,15.247241 -15.29466,15.24724 -15.29466,-15.24724 -15.29468,-15.247241 -10.05298,10.052985 -10.05298,10.052983 15.24724,15.294667 15.24724,15.294664 -15.23459,15.281973 -15.23458,15.28197 9.66918,9.74384 9.66916,9.74384 15.34108,-15.29756 15.34109,-15.29755 z"
   id="path2312"
   transform="scale(0.075)" /></svg>
